<svg width="283" height="134" viewBox="0 0 283 134" fill="none" xmlns="http://www.w3.org/2000/svg">
  <path d="M180.073 51.0774C181.906 48.9731 183.704 46.8331 185.536 44.6931L42.4942 -154.684C16.078 -124.153 0 -83.8853 0 -39.7299C0 3.31973 15.2827 42.6244 40.558 72.8697C98.9227 116.133 159.984 74.4391 180.073 51.0774Z" fill="url(#paint0_linear_393_10707)"/>
  <path d="M180.073 52.0779C159.984 75.4396 98.9224 117.134 40.5231 73.8703C40.4885 73.8346 40.4539 73.799 40.3848 73.7633L43.1854 77.0446C43.22 77.0803 43.2892 77.1516 43.3237 77.1873C45.1909 79.2916 47.0926 81.3603 49.0634 83.3933C49.3746 83.7143 49.6858 83.9996 49.997 84.3206C51.6566 85.9969 53.3509 87.6733 55.0797 89.314C55.8058 89.9916 56.5665 90.6336 57.2926 91.3113C58.641 92.524 59.9895 93.7366 61.3726 94.9136C62.237 95.6626 63.136 96.3403 64.0004 97.0536C65.3143 98.1236 66.5936 99.158 67.9075 100.192C68.841 100.906 69.8437 101.619 70.8119 102.297C72.1258 103.26 73.4051 104.187 74.7536 105.114C75.7563 105.828 76.7936 106.47 77.8309 107.147C79.1448 108.003 80.4587 108.859 81.8071 109.68C82.879 110.322 83.9509 110.964 85.0573 111.606C86.4058 112.39 87.7543 113.175 89.1373 113.924C90.2437 114.53 91.3848 115.101 92.4912 115.707C93.8743 116.421 95.2573 117.134 96.6749 117.812C97.816 118.347 98.9915 118.917 100.133 119.417C101.55 120.059 102.968 120.665 104.42 121.271C105.596 121.771 106.771 122.234 107.981 122.698C109.434 123.269 110.92 123.804 112.373 124.339C113.583 124.767 114.758 125.195 116.003 125.587C117.49 126.086 119.011 126.55 120.533 127.014C121.743 127.37 122.953 127.763 124.198 128.084C125.754 128.512 127.31 128.904 128.9 129.261C130.11 129.546 131.32 129.867 132.565 130.117C134.19 130.473 135.815 130.759 137.475 131.08C138.685 131.294 139.861 131.543 141.071 131.757C142.8 132.043 144.528 132.257 146.292 132.471C147.433 132.613 148.574 132.792 149.715 132.934C151.651 133.148 153.622 133.291 155.593 133.434C156.561 133.505 157.529 133.612 158.497 133.648C161.436 133.79 164.41 133.897 167.418 133.897H167.453C170.15 133.897 172.812 133.826 175.44 133.683C176.166 133.648 176.926 133.576 177.653 133.541C179.623 133.434 181.56 133.255 183.496 133.077C184.291 133.006 185.086 132.899 185.882 132.827C187.783 132.613 189.651 132.364 191.518 132.078C192.278 131.971 193.074 131.864 193.834 131.722C195.701 131.401 197.568 131.08 199.401 130.687C200.162 130.545 200.922 130.402 201.683 130.224C203.308 129.867 204.933 129.475 206.524 129.082C263.609 114.816 306.034 70.1609 325.501 18.0163C325.604 17.731 325.708 17.4456 325.812 17.1603C356.343 -65.8717 382.102 -210.429 382.102 -210.429C382.102 -210.429 281.416 -66.9774 185.536 45.5866C183.703 47.8336 181.905 49.9736 180.073 52.0779Z" fill="url(#paint1_linear_393_10707)"/>
  <defs>
    <linearGradient id="paint0_linear_393_10707" x1="177.157" y1="143.114" x2="317.01" y2="-128.077" gradientUnits="userSpaceOnUse">
      <stop stop-color="#BE1E2D"/>
      <stop offset="0.3511" stop-color="#EF4136"/>
      <stop offset="0.6439" stop-color="#F68B1F"/>
      <stop offset="0.736" stop-color="#F78E20"/>
      <stop offset="0.8284" stop-color="#F89627"/>
      <stop offset="0.9206" stop-color="#FAA535"/>
      <stop offset="0.9731" stop-color="#FBB040"/>
    </linearGradient>
    <linearGradient id="paint1_linear_393_10707" x1="41.7799" y1="142.114" x2="399.608" y2="142.114" gradientUnits="userSpaceOnUse">
      <stop offset="0.2251" stop-color="#EF4136"/>
      <stop offset="0.9214" stop-color="#F68B1F"/>
      <stop offset="0.9434" stop-color="#F78E20"/>
      <stop offset="0.9655" stop-color="#F89627"/>
      <stop offset="0.9875" stop-color="#FAA535"/>
      <stop offset="1" stop-color="#FBB040"/>
    </linearGradient>
  </defs>
</svg>
